# xmcd CD database file generated by OrangeCD 5.2
#
# Track frame offsets:
#	150
#	23255
#	44427
#	72702
#	88842
#	99755
#	113386
#	146026
#	158053
#	167980
#	179422
#	194330
#	212953
#	225452
#
# Disc length: 3164 seconds
#
# Revision: 2
# Processed by: cddbd v1.5.1PL0 Copyright (c) Steve Scherf et al.
# Submitted via: OrangeCD 5.2
#
DISCID=ba0c5a0e
DTITLE=Various Artist - House of Blues   Essential Blues Disc 2
DYEAR=1995
DGENRE=Blues Compilation
TTITLE0=Albert Collins - Master Charge
TTITLE1=Koko Taylor - Mother Nature
TTITLE2=Little Milton - Walking The Backstreets And Crying
TTITLE3=Hound Dog Taylor and The Houserockers - Give Me Back My Wig
TTITLE4=James Brown - Prisoner Of Love
TTITLE5=B.B. King - You Upset Me Baby
TTITLE6=Albert King - I'll Play The BLues For You    Parts 1 and 2
TTITLE7=Otis Spann - Must Have Been The Devil
TTITLE8=John Lee Hooker - Dimples
TTITLE9=Slim Harpo - Rainin' In My Heart
TTITLE10=Fenton Robinson - The Getaway
TTITLE11=Katie Webster - Too Much Sugar For A Dime
TTITLE12=Jimmy Reed - Bright Lights, Big City
TTITLE13=Junior Parker - Drivin'  Wheel
EXTD=
EXTT0=Albert Collins\n
EXTT1=Koko Taylor\n
EXTT2=Little Milton\n
EXTT3=Hound Dog Taylor\n
EXTT4=James Brown\n
EXTT5=B.B. King\n
EXTT6=Albert King\n
EXTT7=Otis Spann\n
EXTT8=John Lee Hooker\n
EXTT9=Slim Harpo\n
EXTT10=Fenton Robinson\n
EXTT11=Katie Webster\n
EXTT12=Jimmy Reed\n
EXTT13=Junior Parker\n
PLAYORDER=
